<?xml version="1.0" encoding="utf-8"?>
<!-- Generator: Adobe Illustrator 18.0.0, SVG Export Plug-In . SVG Version: 6.00 Build 0)  -->
<!DOCTYPE svg PUBLIC "-//W3C//DTD SVG 1.1//EN" "http://www.w3.org/Graphics/SVG/1.1/DTD/svg11.dtd">
<svg version="1.1" id="Layer_1" xmlns="http://www.w3.org/2000/svg" xmlns:xlink="http://www.w3.org/1999/xlink" x="0px" y="0px"
	 viewBox="0 0 50 50" enable-background="new 0 0 50 50" xml:space="preserve">
<path fill="#BFBFBF" d="M14.4,37.4c0,0-5.4-4.3-7.2-11.6C5.4,33.1,0,37.4,0,37.4l4.7-1.3c1.9,24.5,20.1,8,20.5-0.4
	c-1.9,4.6-14.3,13.6-15.5,0.4L14.4,37.4L14.4,37.4z"/>
<g>
	<g id="steem">
		<path id="Fill-1" fill="#707070" d="M4.4,3.6C4.2,3.5,1.4,5.8,1.4,7.4c0,2.3,3.2,7.4,3.7,9.4c0.5,1.7-0.8,3.7-0.4,3.8
			C5,20.8,8,17.8,8.1,16.5c0.1-2-3.5-8-3.7-9.5C4,5.2,4.6,3.7,4.4,3.6L4.4,3.6L4.4,3.6z"/>
		<path id="Fill-2" fill="#707070" d="M11.2,1.3C10.9,1.2,7.4,4,7.4,6.1c0,2.9,4,9.4,4.7,11.9c0.6,2.2-1,4.8-0.6,4.9
			c0.4,0.3,4.2-3.6,4.3-5.2c0.2-2.6-4.4-10.2-4.8-12.1C10.7,3.3,11.5,1.3,11.2,1.3L11.2,1.3L11.2,1.3z"/>
		<path id="Fill-3" fill="#707070" d="M18.2,3.6c-0.2-0.1-2.9,2.1-2.9,3.8c0,2.3,3.2,7.4,3.7,9.4c0.5,1.7-0.8,3.7-0.4,3.8
			c0.3,0.2,3.3-2.8,3.4-4.1c0.1-2-3.5-8-3.7-9.5C17.8,5.2,18.4,3.7,18.2,3.6L18.2,3.6z"/>
	</g>
</g>
<g id="XMLID_16_">
	<path fill="#707070" d="M36,26.9c-2.4,0-4.3,2-4.3,4.4c0,1.3,0.6,2.5,1.5,3.3l-2.3,1.5c0,0,4.5,0.4,6.7-0.8c1.6-0.6,2.7-2.2,2.7-4
		C40.3,28.9,38.4,26.9,36,26.9z M38.2,29.4c-0.5-0.6-1.4-1-2.3-1c-0.6,0-1.2,0.2-1.7,0.5L34,28.5c0.6-0.4,1.2-0.6,2-0.6
		c1,0,2,0.5,2.6,1.2L38.2,29.4z"/>
	<path id="XMLID_11_" fill="#707070" d="M46.8,40.1c-2.2-0.8-5.2,0.7-5.2,0.7s2.3-3.1,2.3-7.7c0-3.4-1.2-4.5-2.1-5.3
		c0.1,0.5,0.1,0.9,0.1,1.4c0,4.9-3,8.1-7.9,8.1c-2,0-3.9,0-5.4-1.1c0,0.1,0.2,1,1.1,2c0.4,0.4,0.9,0.9,1.6,1.2
		c2.2,1.2,3.9,1.3,4,1.3c0,0,0,0,0,0.1c0,2.4-1.7,5.9-4.1,5.9c-0.4,0-0.7-0.1-1.1-0.1c-0.9-0.2-1.5-0.7-1.5-0.7s0.3,2.5,3,2.8
		c3,0.3,4.4-0.4,7.3-2.2c3.2-1.9,5.6-4,7.4-3.5c1.4,0.4,1.6,2.6,1.6,2.6s0.4-0.9,0.5-1.6C48.7,43.2,49,40.9,46.8,40.1z"/>
</g>
<path fill="#BFBFBF" d="M34.6,11.6c0,0,5.4,4.3,7.2,11.6c1.8-7.3,7.2-11.6,7.2-11.6l-4.7,1.3c-1.9-24.5-20.1-8-20.5,0.4
	c1.9-4.6,14.3-13.6,15.5-0.4L34.6,11.6L34.6,11.6z"/>
</svg>
